<svg width="80" height="25" viewBox="0 0 80 25" fill="none" xmlns="http://www.w3.org/2000/svg">
<g clip-path="url(#clip0_4614_5147)">
<path d="M24.9858 0.0394287C18.1216 6.94616 18.1346 18.1096 25.025 25C18.1346 18.1096 6.97107 18.0964 0.064331 24.9606C6.92835 18.054 6.9154 6.89038 0.0250244 0C6.9154 6.89038 18.079 6.90369 24.9858 0.0394287Z" fill="white"/>
<path d="M78.1207 4.135H75.7557V1H78.1207V4.135Z" fill="white"/>
<path d="M78.1207 21.1575H75.7557V6.80249H78.1207V21.1575Z" fill="white"/>
<path d="M69.4093 6.80249H73.1368V8.78249H69.6293V21.1575H67.2368V8.91999C67.2368 7.51749 67.9518 6.80249 69.4093 6.80249Z" fill="white"/>
<path fill-rule="evenodd" clip-rule="evenodd" d="M57.565 12.605C54.2925 12.605 52.34 14.2 52.34 17.0325C52.34 19.7 54.0725 21.4325 56.96 21.4325C59.2975 21.4325 61.2225 20.415 61.855 18.7925H62.02L62.0475 19.535C62.13 20.6075 62.5975 21.1575 63.9175 21.1575H65.24V19.3975H64.2475V11.56C64.2475 10.9 64.22 10.295 63.78 9.27747C63.56 8.75497 63.2575 8.31497 62.9 7.92997C62.1575 7.15997 60.6725 6.52747 58.775 6.52747C55.2825 6.52747 53.0825 8.23247 52.945 11.0925H55.2825C55.365 9.44247 56.52 8.42497 58.6375 8.42497C60.81 8.42497 61.8825 9.44247 61.8825 11.505V12.605H57.565ZM54.7875 17.3075V16.4275C54.7875 15.19 55.8875 14.3375 57.785 14.3375H61.8825V15.1075C61.8825 17.7475 60.1775 19.5075 57.51 19.5075C55.86 19.5075 54.7875 18.7375 54.7875 17.3075Z" fill="white"/>
<path d="M47.2874 8.78255V19.1776H50.3124V21.1576H47.0124C45.6099 21.1576 44.9224 20.4976 44.9224 19.1501V8.78255H42.3099V6.80254H44.9224V2.04504H47.2874V6.80254H50.2849V8.78255H47.2874Z" fill="white"/>
<path d="M31.89 16.8125H29.525C29.525 19.59 31.7525 21.4325 35.3825 21.4325C38.875 21.4325 41.1025 19.7825 41.1025 17.0325C41.1025 14.8875 39.8375 13.595 37.335 13.155L34.5025 12.6325C33.925 12.5225 33.6775 12.44 33.1 12.1925C32.5225 11.89 32.1925 11.34 32.1925 10.57C32.1925 9.22247 33.265 8.36997 35.2175 8.36997C37.2525 8.36997 38.2975 9.22247 38.3525 10.9H40.7175C40.69 8.25997 38.6275 6.52747 35.2175 6.52747C31.9175 6.52747 29.8 8.14997 29.8 10.8175C29.8 12.88 31.065 14.145 33.6225 14.6125L36.7025 15.19C37.9675 15.4375 38.6 16.0975 38.6 17.17C38.6 18.6825 37.39 19.5625 35.3825 19.5625C33.265 19.5625 31.89 18.49 31.89 16.8125Z" fill="white"/>
</g>
<defs>
<clipPath id="clip0_4614_5147">
<rect width="79.375" height="25" fill="white" transform="translate(0.0250244)"/>
</clipPath>
</defs>
</svg>
