<svg width="106" height="25" viewBox="0 0 106 25" fill="none" xmlns="http://www.w3.org/2000/svg">
<g clip-path="url(#clip0_4614_5177)">
<path d="M12.5633 12.1608C12.5633 12.1608 12.3921 10.0287 12.3921 7.18593C12.1805 5.05631 11.7449 3.02815 10.5937 2.92654C10.1822 2.89022 9.80523 3.21553 9.47681 3.83671C10.0908 1.71306 12.5633 0 12.5633 0C12.5633 0 15.0359 1.71306 15.6498 3.83671C15.3214 3.21553 14.9444 2.89022 14.5329 2.92654C13.3818 3.02815 12.9195 5.05631 12.7079 7.18593C12.7079 10.0287 12.5633 12.1608 12.5633 12.1608Z" fill="white"/>
<path d="M12.5367 12.8392C12.5367 12.8392 12.7079 14.9712 12.7079 17.8141C12.9195 19.9436 13.3551 21.9719 14.5064 22.0735C14.9177 22.1097 15.2947 21.7845 15.6232 21.1632C15.0092 23.2869 12.5367 25 12.5367 25C12.5367 25 10.0642 23.2869 9.4502 21.1632C9.77863 21.7845 10.1556 22.1097 10.5671 22.0735C11.7183 21.9719 12.1804 19.9436 12.3921 17.8141C12.3921 14.9712 12.5367 12.8392 12.5367 12.8392Z" fill="white"/>
<path d="M12.8893 12.5132C12.8893 12.5132 15.0213 12.3421 17.8642 12.3421C19.9937 12.1305 22.0219 11.6948 22.1235 10.5437C22.1598 10.1322 21.8345 9.75518 21.2133 9.42676C23.3369 10.0407 25.05 12.5132 25.05 12.5132C25.05 12.5132 23.3369 14.9859 21.2133 15.5997C21.8345 15.2714 22.1598 14.8944 22.1235 14.4829C22.0219 13.3317 19.9937 12.8695 17.8642 12.6579C15.0213 12.6579 12.8893 12.5132 12.8893 12.5132Z" fill="white"/>
<path d="M12.2109 12.4867C12.2109 12.4867 10.0788 12.6578 7.23597 12.6578C5.10636 12.8694 3.0782 13.3051 2.97659 14.4563C2.94026 14.8677 3.26557 15.2447 3.88676 15.5732C1.76311 14.9592 0.0500488 12.4867 0.0500488 12.4867C0.0500488 12.4867 1.76311 10.0141 3.88676 9.40015C3.26557 9.72858 2.94027 10.1056 2.97659 10.5171C3.0782 11.6682 5.10636 12.1304 7.23597 12.342C10.0788 12.342 12.2109 12.4867 12.2109 12.4867Z" fill="white"/>
<path d="M12.7993 12.2695C12.7993 12.2695 14.1858 10.6408 16.1959 8.63064C17.5522 6.97514 18.6783 5.23298 17.9362 4.34714C17.6708 4.03049 17.1743 3.99394 16.5028 4.20094C18.4386 3.13346 21.3982 3.67048 21.3982 3.67048C21.3982 3.67048 21.9353 6.63016 20.8678 8.56594C21.0748 7.89446 21.0382 7.39786 20.7216 7.13258C19.8357 6.39043 18.0748 7.49776 16.4193 8.85399C14.4092 10.8641 12.7993 12.2695 12.7993 12.2695Z" fill="white"/>
<path d="M12.3007 12.7303C12.3007 12.7303 10.9142 14.3591 8.90401 16.3692C7.54778 18.0247 6.42168 19.7668 7.16383 20.6527C7.42911 20.9693 7.92571 21.006 8.59719 20.799C6.66141 21.8665 3.70173 21.3293 3.70173 21.3293C3.70173 21.3293 3.16471 18.3697 4.23219 16.434C4.02518 17.1055 4.06174 17.602 4.37838 17.8673C5.26423 18.6095 7.02517 17.5021 8.68066 16.1458C10.6908 14.1357 12.3007 12.7303 12.3007 12.7303Z" fill="white"/>
<path d="M12.7804 12.7493C12.7804 12.7493 14.4091 14.1358 16.4193 16.1459C18.0748 17.5021 19.8169 18.6283 20.7028 17.8861C21.0194 17.6209 21.056 17.1243 20.849 16.4528C21.9164 18.3885 21.3794 21.3483 21.3794 21.3483C21.3794 21.3483 18.4198 21.8853 16.484 20.8178C17.1554 21.0248 17.652 20.9883 17.9173 20.6715C18.6595 19.7858 17.5521 18.0248 16.1959 16.3693C14.1858 14.3591 12.7804 12.7493 12.7804 12.7493Z" fill="white"/>
<path d="M12.3195 12.2508C12.3195 12.2508 10.6908 10.8642 8.68069 8.85408C7.02519 7.49785 5.28303 6.37175 4.39719 7.1139C4.08054 7.37918 4.04399 7.87578 4.25099 8.54727C3.1835 6.61148 3.72053 3.6518 3.72053 3.6518C3.72053 3.6518 6.6802 3.11478 8.61599 4.18227C7.9445 3.97525 7.44792 4.01182 7.18263 4.32845C6.44048 5.2143 7.5478 6.97524 8.90404 8.63073C10.9142 10.6409 12.3195 12.2508 12.3195 12.2508Z" fill="white"/>
<path d="M96.5173 16.55V16.4563L97.3236 15.6125H97.4173C98.3173 16.7188 99.4236 17.4875 100.999 17.4875C102.705 17.4875 103.792 16.5875 103.792 15.3875C103.792 13.8312 101.974 13.3438 100.005 12.5563C98.7486 12.05 97.0423 11.2813 97.0423 9.35003C97.0423 7.45627 98.6548 6.08752 100.942 6.08752C102.686 6.08752 104.036 6.87502 104.861 7.96252V8.05628L104.017 8.84377H103.924C103.211 7.96252 102.236 7.32502 100.942 7.32502C99.5173 7.32502 98.4298 8.09377 98.4298 9.21877C98.4298 10.3438 99.4986 10.85 100.792 11.3563C102.742 12.125 105.18 12.875 105.18 15.3313C105.18 17.3938 103.455 18.725 101.074 18.725C99.0673 18.725 97.4548 17.7875 96.5173 16.55Z" fill="white"/>
<path d="M92.8513 17.4125L93.1701 18.3687L93.1138 18.4625C92.8326 18.65 92.5701 18.725 92.1201 18.725C91.2576 18.725 90.3576 18.0687 89.5326 17.1125L85.9701 12.9875L84.8263 14.1875V18.5H83.4763V6.3125H84.8263V12.4438L90.6763 6.3125H92.3076L92.3638 6.3875L86.9076 12.0875L90.6201 16.4C91.3513 17.2437 91.7638 17.5063 92.2138 17.5063C92.4388 17.5063 92.6076 17.4688 92.7576 17.375L92.8513 17.4125Z" fill="white"/>
<path d="M71.6383 18.725C68.0008 18.725 65.207 16.025 65.207 12.4063C65.207 8.78752 68.0008 6.08752 71.6383 6.08752C75.2758 6.08752 78.0695 8.78752 78.0695 12.4063C78.0695 16.025 75.2758 18.725 71.6383 18.725ZM71.6383 17.4875C74.507 17.4875 76.682 15.3688 76.682 12.4063C76.682 9.44377 74.507 7.32502 71.6383 7.32502C68.7695 7.32502 66.5945 9.44377 66.5945 12.4063C66.5945 15.3688 68.7695 17.4875 71.6383 17.4875Z" fill="white"/>
<path d="M54.2689 18.725C50.6314 18.725 47.8376 16.025 47.8376 12.4063C47.8376 8.78752 50.6314 6.08752 54.2689 6.08752C57.9064 6.08752 60.7001 8.78752 60.7001 12.4063C60.7001 16.025 57.9064 18.725 54.2689 18.725ZM54.2689 17.4875C57.1376 17.4875 59.3126 15.3688 59.3126 12.4063C59.3126 9.44377 57.1376 7.32502 54.2689 7.32502C51.4001 7.32502 49.2251 9.44377 49.2251 12.4063C49.2251 15.3688 51.4001 17.4875 54.2689 17.4875Z" fill="white"/>
<path d="M41.095 6.3125H42.445V18.5H41.095V12.95H33.6887V18.5H32.3387V6.3125H33.6887V11.75H41.095V6.3125Z" fill="white"/>
</g>
<defs>
<clipPath id="clip0_4614_5177">
<rect width="105.375" height="25" fill="white" transform="translate(0.0500488)"/>
</clipPath>
</defs>
</svg>
