<svg width="90" height="25" viewBox="0 0 90 25" fill="none" xmlns="http://www.w3.org/2000/svg">
<g clip-path="url(#clip0_4614_5191)">
<mask id="mask0_4614_5191" style="mask-type:luminance" maskUnits="userSpaceOnUse" x="0" y="0" width="90" height="25">
<path d="M90 0H0.5V25H90V0Z" fill="white"/>
</mask>
<g mask="url(#mask0_4614_5191)">
<path d="M13.7295 21.2183C15.3437 21.0817 16.8882 20.4998 18.1912 19.5373L20.6137 22.4123C18.7627 23.8339 16.5506 24.7089 14.228 24.9383C11.9053 25.1677 9.56484 24.742 7.47154 23.7099C5.37824 22.6777 3.61574 21.08 2.3836 19.0978C1.15145 17.1155 0.498874 14.828 0.499757 12.4941C0.50064 10.1601 1.15494 7.87301 2.38859 5.89173C3.62224 3.91046 5.38595 2.31413 7.48002 1.28351C9.5741 0.252879 11.9149 -0.17088 14.2374 0.0602056C16.5599 0.291291 18.7712 1.16799 20.6212 2.59104L18.1975 5.46604C16.8954 4.50237 15.3514 3.91908 13.7372 3.78114C12.1233 3.64319 10.5026 3.95602 9.05587 4.68476C7.60914 5.41349 6.3931 6.52954 5.5432 7.9086C4.69329 9.28765 4.2429 10.8756 4.24217 12.4955C4.24146 14.1154 4.69044 15.7037 5.53912 17.0835C6.3878 18.4633 7.60285 19.5804 9.04894 20.3104C10.495 21.0405 12.1154 21.3548 13.7295 21.2183Z" fill="white"/>
<path d="M21.4738 21.6863L19.0513 18.8113H19.055C19.9084 17.9963 20.5878 17.0167 21.0519 15.9317C21.5159 14.8467 21.7553 13.6789 21.7553 12.4988C21.7553 11.3187 21.5159 10.1509 21.0519 9.06589C20.5878 7.98092 19.9084 7.0013 19.055 6.18628L21.48 3.31128C22.7484 4.48224 23.7605 5.90323 24.4526 7.48472C25.1446 9.06619 25.5016 10.7739 25.501 12.5002C25.5005 14.2264 25.1424 15.9339 24.4493 17.5149C23.7561 19.0959 22.743 20.5162 21.4738 21.6863Z" fill="white"/>
<path d="M71.3085 0.75V20.825H73.701V0.75H71.3085Z" fill="white"/>
<path fill-rule="evenodd" clip-rule="evenodd" d="M83.1809 18.9275C80.6234 18.9275 78.6709 17.525 78.2034 15.05H89.7259C89.7809 14.6925 89.8084 14.335 89.8084 13.9775C89.8084 10.1275 87.1134 6.71753 82.9609 6.71753C78.6709 6.71753 75.7559 9.88003 75.7559 13.95C75.7559 18.075 78.6984 21.1825 83.1259 21.1825C85.8759 21.1825 87.9659 19.945 89.1759 18.075L87.1409 16.92C86.4534 18.0475 85.0784 18.9275 83.1809 18.9275ZM78.2034 12.96C78.5884 10.5675 80.3759 8.97253 82.9609 8.97253C85.0234 8.97253 86.9759 10.2375 87.3884 12.96H78.2034Z" fill="white"/>
<path d="M63.5837 21.1825C59.4312 21.1825 56.3512 18.02 56.3512 13.95C56.3512 9.88003 59.4312 6.71753 63.5837 6.71753C66.3062 6.71753 68.6162 8.14753 69.6612 10.32L67.6537 11.475C66.9662 10.0175 65.4262 9.05503 63.5837 9.05503C60.8337 9.05503 58.7437 11.1725 58.7437 13.95C58.7437 16.7 60.8337 18.8175 63.5837 18.8175C65.4537 18.8175 66.9662 17.855 67.7362 16.425L69.7712 17.6075C68.6162 19.7525 66.2787 21.1825 63.5837 21.1825Z" fill="white"/>
<path d="M56.3572 6.82751C54.6247 6.82751 52.9472 7.46001 52.0672 9.38501V7.07501H49.6747V20.825H52.0672V13.5375C52.0672 10.2925 54.2947 9.24751 56.3572 9.33001V6.82751Z" fill="white"/>
<path d="M45.6672 4.57248C44.7597 4.57248 44.0447 3.85748 44.0447 2.97748C44.0447 2.09748 44.7597 1.35498 45.6672 1.35498C46.5472 1.35498 47.2622 2.09748 47.2622 2.97748C47.2622 3.85748 46.5472 4.57248 45.6672 4.57248Z" fill="white"/>
<path d="M44.4572 20.825V7.07495H46.8497V20.825H44.4572Z" fill="white"/>
<path d="M29.5 13.95C29.5 18.02 32.58 21.1825 36.7325 21.1825C39.4275 21.1825 41.765 19.7525 42.92 17.6075L40.885 16.425C40.115 17.855 38.6025 18.8175 36.7325 18.8175C33.9825 18.8175 31.8925 16.7 31.8925 13.95C31.8925 11.1725 33.9825 9.05503 36.7325 9.05503C38.575 9.05503 40.115 10.0175 40.8025 11.475L42.81 10.32C41.765 8.14753 39.455 6.71753 36.7325 6.71753C32.58 6.71753 29.5 9.88003 29.5 13.95Z" fill="white"/>
</g>
</g>
<defs>
<clipPath id="clip0_4614_5191">
<rect width="89.5" height="25" fill="white" transform="translate(0.5)"/>
</clipPath>
</defs>
</svg>
