<svg width="112" height="25" viewBox="0 0 112 25" fill="none" xmlns="http://www.w3.org/2000/svg">
<g clip-path="url(#clip0_4614_5136)">
<mask id="mask0_4614_5136" style="mask-type:luminance" maskUnits="userSpaceOnUse" x="0" y="0" width="112" height="25">
<path d="M111.95 0H0.0750122V25H111.95V0Z" fill="white"/>
</mask>
<g mask="url(#mask0_4614_5136)">
<path d="M10.1554 24.9375H8.2446V-0.0625L10.1554 1.52986V24.9375Z" fill="white"/>
<path d="M4.10449 24.9375H6.01532V4.78308L4.10449 6.37543V24.9375Z" fill="white"/>
<path d="M2.03442 24.9375H0.123596V11.1525L2.03442 9.56018V24.9375Z" fill="white"/>
<path d="M18.2765 24.9375H16.3657V9.56018L18.2765 11.1525V24.9375Z" fill="white"/>
<path d="M12.3847 24.9375H14.2955V6.37543L12.3847 4.78308V24.9375Z" fill="white"/>
<path fill-rule="evenodd" clip-rule="evenodd" d="M39.0671 17.8917V17.0322H36.9425V17.8536C36.9425 19.6871 37.5359 21.325 40.0923 21.325C42.6488 21.325 43.3293 19.4771 43.3293 17.505C43.3293 15.1652 42.7011 14.2724 40.6506 12.73C39.4466 11.8371 39.2634 11.2975 39.2634 10.3759C39.2634 9.45435 39.4249 8.84793 40.1359 8.84793C40.847 8.84793 41.0084 9.44958 41.0084 10.4046V11.0874H43.1024V10.3425C43.1024 8.8336 42.6575 7 40.1839 7C37.7104 7 37.165 8.84793 37.165 10.6767C37.165 12.7347 37.9546 13.4987 39.4249 14.6734C40.895 15.8481 41.2135 16.3113 41.2135 17.8059C41.2135 18.7083 40.9779 19.501 40.1751 19.501C39.3725 19.501 39.0671 18.9231 39.0671 17.8917ZM26.717 21.1244L27.1925 17.4094H29.3084L29.8493 21.1244H32.0568L29.7664 7.22433H26.7824L24.575 21.1244H26.717ZM28.2831 9.26324C28.4401 10.8342 28.7369 13.0737 29.0509 15.4374H27.4718C27.514 15.1166 27.5598 14.7735 27.607 14.4184L27.6071 14.418C27.863 12.4992 28.1655 10.2302 28.2134 9.26324H28.2831ZM55.1124 21.1244H53.4634C53.4034 20.7807 53.3655 20.4329 53.3499 20.0834C52.9704 21.0098 52.172 21.3297 51.2908 21.3297C49.2753 21.3297 48.6253 19.8495 48.6253 17.5097V10.9632C48.6253 8.69505 49.4978 7.0238 51.8754 7.0238C54.7503 7.0238 55.0556 9.16779 55.0556 10.6624V11.1112H52.9311V10.5573C52.9311 9.82196 52.8264 8.97679 51.8623 8.97679C51.0901 8.97679 50.7629 9.51635 50.7629 10.6289V17.7389C50.7629 18.8515 51.0814 19.4292 51.8449 19.4292C52.761 19.4292 52.9835 18.6557 52.9835 17.2232V15.1939H51.7969V13.3506H55.1124V21.1244ZM62.4854 21.1244L62.9653 17.4094H65.0636L65.6045 21.1244H67.8033L65.5129 7.2243H62.529L60.3478 21.1244H62.4854ZM64.0559 9.26322C64.2129 10.8342 64.5095 13.0736 64.8236 15.4372H63.227C63.2693 15.1165 63.315 14.7732 63.3624 14.418V14.4176L63.3625 14.4174C63.6183 12.4987 63.9208 10.2301 63.9686 9.26322H64.0559ZM75.0273 14.912V21.1195H72.9159V7.2243H75.8388C77.924 7.2243 79.1543 8.07425 79.1543 10.5668V11.0968C79.1543 13.2312 78.2818 13.7756 77.7625 13.9952C78.5609 14.3772 79.0146 14.9503 79.0146 16.8602C78.9798 18.2846 79.022 19.7101 79.1411 21.1291H77.0995C76.945 20.4076 76.9533 18.6039 76.9584 17.4761C76.9591 17.2978 76.9599 17.1364 76.9599 16.9987C76.9599 15.3036 76.7418 14.9169 75.5159 14.9169L75.0273 14.912ZM75.0273 13.1405H75.5115C76.6283 13.1405 77.0384 12.7107 77.0384 11.2019V10.7244C77.0384 9.65 76.8203 8.99582 75.6249 8.99582H75.0273V13.1405ZM87.753 7.2243H84.8258V21.1244H87.753C91.0074 21.1244 91.3651 18.7894 91.3651 16.6645V11.3356C91.3651 8.7523 90.6584 7.2243 87.753 7.2243ZM87.6353 19.3002H86.959V9.06745H87.6221C89.0181 9.06745 89.2363 9.88875 89.2363 11.1637V16.9557C89.2363 18.393 89.0269 19.3002 87.6353 19.3002ZM99.1738 7.2243V21.1244H97.0623V7.2243H99.1738ZM106.494 21.1244L106.974 17.4094H109.081L109.618 21.1244H111.825L109.535 7.2243H106.551L104.343 21.1244H106.494ZM108.718 14.598C108.754 14.8754 108.791 15.1555 108.828 15.4372H107.24C107.266 15.2409 107.294 15.036 107.322 14.8251C107.59 12.8316 107.93 10.2996 107.982 9.26322H108.06C108.199 10.6469 108.449 12.5491 108.718 14.598Z" fill="white"/>
</g>
</g>
<defs>
<clipPath id="clip0_4614_5136">
<rect width="111.875" height="25" fill="white" transform="translate(0.0750122)"/>
</clipPath>
</defs>
</svg>
