<svg width="93" height="25" viewBox="0 0 93 25" fill="none" xmlns="http://www.w3.org/2000/svg">
<g clip-path="url(#clip0_4614_5166)">
<mask id="mask0_4614_5166" style="mask-type:luminance" maskUnits="userSpaceOnUse" x="0" y="0" width="93" height="25">
<path d="M92.975 0H0.474976V25H92.975V0Z" fill="white"/>
</mask>
<g mask="url(#mask0_4614_5166)">
<path fill-rule="evenodd" clip-rule="evenodd" d="M8.64259 9.83626C8.27753 9.07776 8.11478 8.23777 8.17013 7.39782C8.22548 6.55786 8.49704 5.74649 8.95846 5.04245C9.41989 4.33841 10.0555 3.76564 10.8036 3.37971C11.5517 2.99379 12.3869 2.80783 13.228 2.83989C14.0692 2.87195 14.8877 3.12095 15.6044 3.5627C16.3209 4.00445 16.911 4.62395 17.3175 5.36106C17.724 6.09819 17.9331 6.92787 17.9244 7.76961C17.9156 8.61134 17.6894 9.43651 17.2676 10.165L13.3276 17L14.5089 19.0462L19.0439 11.1913C19.939 9.60135 20.1707 7.72254 19.689 5.96272C19.2072 4.20291 18.0509 2.70415 16.4707 1.79181C14.8906 0.879481 13.0145 0.627219 11.2495 1.0898C9.48456 1.55238 7.9733 2.69245 7.04384 4.26251C6.55021 5.10603 6.24284 6.04542 6.14236 7.01757C6.04189 7.98972 6.15065 8.97213 6.46134 9.89876C6.7773 9.85921 7.0954 9.83917 7.41384 9.83876L8.64259 9.83626ZM24.5364 13.8112C24.0466 12.9516 23.3765 12.2082 22.5721 11.6322C21.7676 11.0563 20.848 10.6615 19.8764 10.475C19.753 10.7698 19.6115 11.0566 19.4526 11.3337L18.8351 12.4025C19.6779 12.4543 20.4927 12.7237 21.2002 13.1845C21.9077 13.6452 22.4837 14.2817 22.8719 15.0315C23.26 15.7814 23.447 16.6191 23.4146 17.4629C23.3822 18.3065 23.1317 19.1275 22.6874 19.8454C22.243 20.5634 21.62 21.1537 20.8794 21.5591C20.1386 21.9644 19.3055 22.1706 18.4612 22.1577C17.617 22.1449 16.7905 21.9132 16.0625 21.4856C15.3345 21.0579 14.7299 20.4486 14.3076 19.7175L10.3738 12.905H8.01258L12.5351 20.74C12.6906 21.0074 12.863 21.2646 13.0514 21.51L13.0889 21.5587C13.733 22.3879 14.5591 23.0576 15.5036 23.5162C16.448 23.975 17.4852 24.2101 18.5351 24.2037C19.7512 24.2036 20.9459 23.8834 21.999 23.2752C23.0521 22.6671 23.9267 21.7925 24.5347 20.7394C25.1429 19.6861 25.463 18.4915 25.463 17.2754C25.4631 16.0592 25.143 14.8645 24.5351 13.8112H24.5364ZM9.66961 21.6065C10.4084 21.2215 11.0364 20.6539 11.4938 19.9575L12.0925 21C12.2583 21.2857 12.4428 21.5601 12.645 21.8212C11.9979 22.5739 11.1949 23.1767 10.2916 23.5881C9.38828 23.9995 8.40633 24.2096 7.41378 24.2037C6.49614 24.2161 5.58519 24.046 4.73381 23.7034C3.88245 23.3607 3.10764 22.8524 2.45436 22.2077C1.80109 21.5632 1.28237 20.7954 0.928327 19.9486C0.574283 19.102 0.391968 18.1934 0.391968 17.2756C0.391968 16.3579 0.574283 15.4494 0.928327 14.6026C1.28237 13.756 1.80109 12.988 2.45436 12.3435C3.10764 11.6989 3.88245 11.1906 4.73381 10.8479C5.58519 10.5053 6.49614 10.3352 7.41378 10.3475H16.475L15.2975 12.3925H7.41378C6.55676 12.3929 5.71494 12.6189 4.97288 13.0476C4.2308 13.4764 3.61464 14.0927 3.18624 14.8351C2.75785 15.5774 2.53234 16.4192 2.53234 17.2762C2.53235 18.1334 2.75788 18.9753 3.18628 19.7175C3.6027 20.4391 4.19686 21.042 4.91221 21.469C5.62756 21.896 6.44029 22.1327 7.27303 22.1569C8.10576 22.1809 8.93081 21.9914 9.66961 21.6065Z" fill="white"/>
<path d="M42.4954 20.2525L42.1354 18.5425L41.9554 18.475C41.8204 18.565 41.6404 18.6325 41.4379 18.6325C41.0779 18.6325 40.7629 18.43 40.3804 18.0025L37.1404 14.2L41.5954 9.40753L41.5279 9.25003H38.8954L34.2379 14.38V5.29003L34.0579 5.15503L31.7854 5.49253V20.5H34.2379V16.765L35.3404 15.5725L38.5129 19.3975C39.1879 20.23 40.0429 20.77 41.1229 20.77C41.6854 20.77 42.1129 20.635 42.4054 20.4325L42.4954 20.2525Z" fill="white"/>
<path fill-rule="evenodd" clip-rule="evenodd" d="M74.5303 8.97999C77.9503 8.97999 80.2678 11.59 80.2678 14.875C80.2678 18.16 77.9503 20.77 74.5303 20.77C72.9328 20.77 71.5828 20.1175 70.6153 19.1275V20.5H68.4103V5.51499L70.7053 5.17749L70.8628 5.28999V10.3975C71.8078 9.51999 73.0678 8.97999 74.5303 8.97999ZM74.2378 18.6325C76.3528 18.6325 77.7478 16.9675 77.7478 14.875C77.7478 12.805 76.3528 11.1175 74.2378 11.1175C72.2578 11.1175 70.6828 12.4225 70.6828 14.875C70.6828 17.3275 72.2578 18.6325 74.2378 18.6325Z" fill="white"/>
<path fill-rule="evenodd" clip-rule="evenodd" d="M92.5277 18.565L92.8877 20.23L92.7977 20.3875C92.4827 20.6125 92.0102 20.77 91.4477 20.77C90.4352 20.77 89.6927 20.23 89.4002 19.3075C88.4327 20.23 87.0377 20.77 85.5527 20.77C83.2352 20.77 81.0977 19.4875 81.0977 17.0575C81.0977 14.56 83.3477 13.4125 86.1152 13.4125C87.3302 13.4125 88.2752 13.6375 89.0852 13.93V13.3C89.0852 11.68 87.6227 10.8925 86.0702 10.8925C84.7877 10.8925 83.7977 11.4325 83.0102 12.1975H82.8302L81.5927 11.0275V10.8475C82.8077 9.67748 84.3602 8.97998 86.2952 8.97998C88.7252 8.97998 91.4927 10.06 91.4927 13.3V17.6425C91.4927 18.25 91.6052 18.6325 92.0102 18.6325C92.1677 18.6325 92.2802 18.565 92.3702 18.4975L92.5277 18.565ZM89.0852 16.4275V15.595C88.5002 15.37 87.5327 15.0775 86.4302 15.0775C84.6527 15.0775 83.5502 15.8425 83.5502 17.0575C83.5502 18.34 84.7652 18.97 86.0477 18.97C87.6002 18.97 89.0852 18.0025 89.0852 16.4275Z" fill="white"/>
<path d="M66.1969 13.7275C66.1969 10.915 64.3744 8.97998 61.5169 8.97998C60.0094 8.97998 58.7269 9.51998 57.8494 10.3975C57.5569 9.49748 56.8594 8.97998 55.8244 8.97998C55.2394 8.97998 54.7444 9.13748 54.4294 9.36248L54.3394 9.51998L54.6994 11.185L54.8569 11.2525C54.9469 11.185 55.0594 11.1175 55.2169 11.1175C55.6444 11.1175 55.7344 11.5 55.7344 12.1075V20.5H58.2094V13.93C58.2094 12.22 59.3569 11.095 61.0444 11.095C62.7319 11.095 63.7444 12.22 63.7444 13.93V20.5H66.1969V13.7275Z" fill="white"/>
<path fill-rule="evenodd" clip-rule="evenodd" d="M53.7275 18.565L54.0875 20.23L53.9975 20.3875C53.6825 20.6125 53.21 20.77 52.6475 20.77C51.635 20.77 50.8925 20.23 50.6 19.3075C49.6325 20.23 48.2375 20.77 46.7525 20.77C44.435 20.77 42.2975 19.4875 42.2975 17.0575C42.2975 14.56 44.5475 13.4125 47.315 13.4125C48.53 13.4125 49.475 13.6375 50.285 13.93V13.3C50.285 11.68 48.8225 10.8925 47.27 10.8925C45.9875 10.8925 44.9975 11.4325 44.21 12.1975H44.03L42.7925 11.0275V10.8475C44.0075 9.67748 45.56 8.97998 47.495 8.97998C49.925 8.97998 52.6925 10.06 52.6925 13.3V17.6425C52.6925 18.25 52.805 18.6325 53.21 18.6325C53.3675 18.6325 53.48 18.565 53.57 18.4975L53.7275 18.565ZM50.285 16.4275V15.595C49.7 15.37 48.7325 15.0775 47.63 15.0775C45.8525 15.0775 44.75 15.8425 44.75 17.0575C44.75 18.34 45.965 18.97 47.2475 18.97C48.8 18.97 50.285 18.0025 50.285 16.4275Z" fill="white"/>
</g>
</g>
<defs>
<clipPath id="clip0_4614_5166">
<rect width="92.5" height="25" fill="white" transform="translate(0.474976)"/>
</clipPath>
</defs>
</svg>
