<svg width="54" height="13" viewBox="0 0 54 13" fill="none" xmlns="http://www.w3.org/2000/svg">
<path d="M2.60594 12H0.805938V1.05H2.60594V5.73H8.11094V1.05H9.91094V12H8.11094V7.335H2.60594V12ZM14.677 12H12.877V1.05H14.677V12ZM19.4516 12H17.6516V0.975H21.4766C23.9966 0.975 25.6166 2.085 25.6166 4.47V4.71C25.6166 6.39 24.8066 7.425 23.4566 7.89L26.5166 12H24.3716L21.6116 8.19C21.5666 8.19 21.5216 8.19 21.4766 8.19H19.4516V12ZM21.7166 2.535H19.4516V6.675H21.7166C22.9916 6.675 23.7866 5.82 23.7866 4.605C23.7866 3.405 22.9916 2.535 21.7166 2.535ZM33.1649 12.27C29.2349 12.27 27.4499 9.075 27.4499 6.66V6.33C27.4499 3.69 29.3249 0.734999 33.1649 0.734999C36.9899 0.734999 38.8799 3.69 38.8799 6.33V6.66C38.8799 9.075 37.0949 12.27 33.1649 12.27ZM33.1649 10.605C35.5649 10.605 37.0499 8.685 37.0499 6.51C37.0499 4.215 35.5649 2.4 33.1649 2.4C30.7649 2.4 29.2799 4.215 29.2799 6.51C29.2799 8.685 30.7649 10.605 33.1649 10.605ZM42.9184 12H41.1184V1.05H42.9184V6.18L47.2384 1.05H49.2934L45.2284 5.85L50.3284 12H48.1234L43.8934 6.885H42.9184V12ZM53.4953 12H51.6953V1.05H53.4953V12Z" fill="white"/>
</svg>
