<svg width="50" height="40" viewBox="0 0 50 40" fill="none" xmlns="http://www.w3.org/2000/svg">
<rect width="50" height="40" rx="8" fill="white"/>
<path fill-rule="evenodd" clip-rule="evenodd" d="M19.4 12C15.2028 12 11.8 15.4028 11.8 19.6C11.8 23.7972 15.2028 27.2 19.4 27.2H30.6C31.3877 27.2 32.1473 27.08 32.8617 26.8576L35.0001 28L37.3073 23.6784C37.8933 22.5783 38.1999 21.3509 38.2001 20.1044V19.6C38.2001 15.4028 34.7973 12 30.6 12H19.4ZM34.2001 19.6C34.2001 18.6452 33.8208 17.7295 33.1456 17.0544C32.4705 16.3793 31.5548 16 30.6 16H19.4C18.9273 16 18.4592 16.0931 18.0224 16.274C17.5856 16.455 17.1888 16.7201 16.8545 17.0544C16.5202 17.3887 16.255 17.7856 16.0741 18.2223C15.8932 18.6591 15.8 19.1272 15.8 19.6C15.8 20.0728 15.8932 20.5409 16.0741 20.9777C16.255 21.4144 16.5202 21.8113 16.8545 22.1456C17.1888 22.4799 17.5856 22.745 18.0224 22.926C18.4592 23.1069 18.9273 23.2 19.4 23.2H30.6C31.55 23.2 32.4615 22.8246 33.1358 22.1555C33.8101 21.4864 34.1927 20.5779 34.2001 19.628V19.6Z" fill="black"/>
</svg>
